<?xml version="1.0" encoding="utf-8"?>
<!-- Generator: Adobe Illustrator 26.3.1, SVG Export Plug-In . SVG Version: 6.00 Build 0)  -->
<svg version="1.1" id="Calque_1" xmlns="http://www.w3.org/2000/svg" xmlns:xlink="http://www.w3.org/1999/xlink" x="0px" y="0px"
	 viewBox="0 0 256 256" style="enable-background:new 0 0 256 256;" xml:space="preserve">
<g>
	<path d="M5.02,201.16c0-48.77,0-97.55,0-146.32c0.19-0.5,0.42-0.99,0.55-1.51C8.2,42.88,17.29,35.6,27.88,35.6
		c66.75-0.02,133.51-0.02,200.26,0c12.53,0,22.81,10.24,22.82,22.75c0.03,46.43,0.03,92.87,0,139.3
		c-0.01,12.51-10.29,22.75-22.82,22.75c-66.75,0.02-133.51,0.02-200.26,0c-9.96,0-18.87-6.63-21.84-16.12
		C5.7,203.24,5.36,202.2,5.02,201.16z M235.6,68.1c-0.98,0.77-1.6,1.22-2.18,1.72c-32.96,28.62-65.91,57.25-98.87,85.86
		c-1.14,0.99-2.36,1.99-3.73,2.56c-3.91,1.64-6.84-0.32-9.71-2.81c-32.87-28.6-65.77-57.17-98.67-85.73
		c-0.56-0.48-1.17-0.9-2.06-1.58c0,1.33,0,2.2,0,3.07c0,41.38,0,82.77,0,124.15c0,6.81,2.84,9.67,9.59,9.67
		c65.31,0,130.63,0,195.94,0c6.84,0,9.68-2.81,9.68-9.58c0-41.46,0-82.93,0-124.39C235.6,70.24,235.6,69.44,235.6,68.1z
		 M230.65,51.7c-3.37-1.12-202.9-0.92-205.13,0.15c34.15,29.66,68.24,59.26,102.48,88.99C162.24,111.11,196.33,81.51,230.65,51.7z"
		/>
</g>
</svg>
