<?xml version="1.0" encoding="utf-8"?>
<!-- Generator: Adobe Illustrator 26.3.1, SVG Export Plug-In . SVG Version: 6.00 Build 0)  -->
<svg version="1.1" id="Calque_1" xmlns="http://www.w3.org/2000/svg" xmlns:xlink="http://www.w3.org/1999/xlink" x="0px" y="0px"
	 viewBox="0 0 256 256" style="enable-background:new 0 0 256 256;" xml:space="preserve">
<g>
	<path d="M128,7.72c66.32-0.01,120.69,54.32,120.5,120.4c-0.19,66.22-54.23,120.12-120.48,120.15
		C61.74,248.31,7.36,193.98,7.5,127.88C7.64,61.7,61.76,7.73,128,7.72z M21.88,127.87c-0.06,58.49,47.24,105.9,105.79,106.05
		c58.75,0.14,106.33-47.08,106.45-105.65c0.12-58.63-47.25-106.11-105.92-106.17C69.44,22.03,21.94,69.28,21.88,127.87z"/>
	<path d="M129.18,224.8c-33.39-0.89-59.36-13.91-79.08-39.38c-1.34-1.73-1.34-3.04-0.28-4.83c3.48-5.85,8.55-10.04,14.16-13.61
		c10.49-6.67,21.28-12.8,32.98-17.19c1.78-0.67,3.52-1.53,5.14-2.51c5.05-3.07,6.66-8.46,3.99-13.76c-1.12-2.22-2.66-4.27-4.2-6.25
		c-8.41-10.8-14.48-22.68-16.44-36.33c-2.12-14.75-0.97-29.01,8.44-41.42c7.05-9.3,16.75-14.01,28.24-15.4
		c9.19-1.12,18.1-0.2,26.48,3.79c12.68,6.05,19.69,16.57,22.15,30.03c3.7,20.22-1.4,38.47-13.38,55c-2.29,3.15-4.7,6.31-6.4,9.78
		c-3.61,7.36-1.82,12.71,5.39,16.48c3.67,1.92,7.62,3.34,11.47,4.91c10.15,4.15,20.12,8.64,28.85,15.42
		c4.08,3.18,7.6,6.88,10.02,11.52c0.66,1.27,0.76,2.23-0.21,3.52c-16.05,21.42-37.13,34.66-63.69,38.88
		C137.93,224.2,132.97,224.43,129.18,224.8z"/>
</g>
</svg>
