<?xml version="1.0" encoding="utf-8"?>
<!-- Generator: Adobe Illustrator 26.3.1, SVG Export Plug-In . SVG Version: 6.00 Build 0)  -->
<svg version="1.1" id="Calque_1" xmlns="http://www.w3.org/2000/svg" xmlns:xlink="http://www.w3.org/1999/xlink" x="0px" y="0px"
	 viewBox="0 0 256 256" style="enable-background:new 0 0 256 256;" xml:space="preserve">
<g>
	<path d="M200.62,236.77c0.97-19.67-3-37.29-15.44-52.28c-12.31-14.83-28.18-22.82-47.24-24.55c28.16-7,40.81-31.98,37.32-53.99
		c-3.76-23.71-23.99-40.75-47.33-40.5c-23.65,0.26-43.37,16.97-47.03,40.48c-3.5,22.51,9.57,47.11,37.37,54.01
		c-19.22,1.76-35.16,9.85-47.48,24.82c-12.29,14.94-16.26,32.47-15.16,52.43c-13.42-9.97-23.8-21.34-31.96-34.76
		c-12.75-20.98-18.63-43.81-18.04-68.34C7.06,74.8,52.71,23.34,114.21,16.42c60.12-6.76,113.86,30.34,130.91,85.98
		C261.21,154.9,239.71,208.99,200.62,236.77z"/>
</g>
</svg>
