<?xml version="1.0" encoding="utf-8"?>
<!-- Generator: Adobe Illustrator 26.3.1, SVG Export Plug-In . SVG Version: 6.00 Build 0)  -->
<svg version="1.1" id="Calque_1" xmlns="http://www.w3.org/2000/svg" xmlns:xlink="http://www.w3.org/1999/xlink" x="0px" y="0px"
	 viewBox="0 0 256 256" style="enable-background:new 0 0 256 256;" xml:space="preserve">
<g>
	<path d="M132.96,2.54c5.28,4.06,10.57,8.09,15.83,12.17c16.23,12.57,34.74,19.09,55.07,20.8c6.43,0.54,12.88,1.02,18.48,4.83
		c7.52,5.11,11.89,12.14,12.17,21.23c0.39,12.59,0.62,25.19,0.47,37.78c-0.26,21.46-2.33,42.72-8.75,63.35
		c-9.38,30.18-27.22,54-53.81,71.21c-11.86,7.67-24.55,13.57-37.8,18.34c-4.13,1.49-8.32,1.65-12.5,0.19
		c-21.5-7.52-41.28-18.04-58-33.77c-17.28-16.26-28.6-36.11-35.18-58.77c-3.4-11.71-5.3-23.69-6.49-35.82
		c-2.08-21.15-1.59-42.32-0.89-63.49c0.38-11.55,10.8-22.67,22.39-24.18c7.44-0.97,14.96-1.57,22.32-2.98
		c13.45-2.59,25.91-7.82,37.07-15.83c4.24-3.04,8.06-6.66,12.19-9.87c2.42-1.88,5.06-3.47,7.6-5.18
		C126.41,2.54,129.69,2.54,132.96,2.54z M219.86,87.37c0-7.94,0.03-15.87-0.01-23.8c-0.02-4.54-1.54-8.57-5.66-10.71
		c-2.51-1.3-5.55-1.68-8.41-2.17c-8.67-1.5-17.51-2.28-26.02-4.39c-18.59-4.62-34.74-13.95-48.67-27.14
		c-2.98-2.82-2.9-2.59-6.14-0.03c-6.52,5.17-12.86,10.68-19.9,15.06c-16.69,10.4-35.25,15.2-54.77,16.44
		c-8.88,0.56-13.9,4.75-14.01,12.47c-0.29,19.62-1.08,39.25,0.85,58.85c1.11,11.32,2.9,22.5,6.01,33.43
		c6.3,22.16,17.72,41.12,35.33,56.21c14.16,12.14,30.46,20.4,47.92,26.57c1.11,0.39,2.61,0.24,3.77-0.14
		c3.32-1.12,6.58-2.42,9.81-3.77c14.96-6.26,28.78-14.38,40.76-25.42c19.98-18.41,30.73-41.7,35.67-67.97
		C219.71,123.18,220.34,105.29,219.86,87.37z"/>
	<path d="M108.43,149.59c0-3.84,0.11-7.69-0.07-11.53c-0.05-1.12-0.64-2.54-1.47-3.24c-20.14-17.12-14.57-48.56,10.24-57.54
		c19.09-6.91,40.88,6.05,43.82,26.06c1.85,12.58-2.1,23-11.69,31.27c-1.18,1.02-1.61,2.03-1.6,3.54c0.05,7.03,0.06,14.06-0.03,21.1
		c-0.12,9.75-5.71,16.99-15.02,19.62c-11.17,3.16-23.58-5.67-24.14-17.27c-0.19-4-0.03-8.01-0.03-12.02
		C108.44,149.59,108.44,149.59,108.43,149.59z M123.33,145.6c-0.07,0-0.13,0-0.2,0c0,4.33-0.02,8.67,0.02,13
		c0.01,0.96,0.11,1.98,0.43,2.88c0.78,2.17,2.45,3.26,4.74,3.06c2.26-0.2,3.77-1.48,4.18-3.78c0.19-1.04,0.25-2.11,0.26-3.17
		c0.08-7.77,0.35-15.54,0.11-23.3c-0.14-4.62,1.54-7.55,5.4-10.07c6.62-4.33,9.34-10.79,7.93-18.63
		c-1.28-7.07-5.48-11.96-12.34-14.22c-9.26-3.04-18.6,1.12-22.71,9.88c-3.94,8.4-0.91,18.42,7.34,23.46
		c3.45,2.11,5.02,4.86,4.87,8.86C123.22,137.59,123.33,141.6,123.33,145.6z"/>
</g>
</svg>
