<?xml version="1.0" encoding="utf-8"?>
<!-- Generator: Adobe Illustrator 26.3.1, SVG Export Plug-In . SVG Version: 6.00 Build 0)  -->
<svg version="1.1" id="Calque_1" xmlns="http://www.w3.org/2000/svg" xmlns:xlink="http://www.w3.org/1999/xlink" x="0px" y="0px"
	 viewBox="0 0 256 256" style="enable-background:new 0 0 256 256;" xml:space="preserve">
<g>
	<path d="M1.87,138.08c0.35-2.92,0.72-5.83,1.06-8.75c3.82-33.44,18.7-61.02,44.25-82.79c17.79-15.15,38.41-24.44,61.46-28.04
		c64.81-10.1,127.06,31,141.74,94.98c11.22,48.9-2.84,90.75-39.91,124.73c-0.48,0.44-1,0.81-0.97,0.79
		c-15.57-7.83-30.76-15.56-46.04-23.13c-6.57-3.26-9.98-8.21-9.73-15.65c0.15-4.35-0.84-8.95,0.28-13c1.07-3.9,4.43-7.1,6.36-10.83
		c3.12-6.03,5.84-12.27,8.85-18.36c0.56-1.14,1.48-2.34,2.56-2.94c4.64-2.61,7.13-6.46,7.21-11.76c0.08-5.5,0.02-11.01,0.02-16.52
		c0-3.07-1.1-5.72-2.87-8.22c-0.7-0.99-1.27-2.33-1.28-3.51c-0.06-8.05,0.15-16.1,0.09-24.15c-0.11-14.8-7.3-27.68-24.92-33.26
		c-9.5-3.01-19.29-3.55-29.21-2.71c-8.18,0.7-16.07,2.29-23.23,6.49c-11.44,6.71-16.34,17.05-16.37,29.99
		c-0.02,8.05,0.11,16.1,0.07,24.15c-0.01,0.95-0.52,2.04-1.12,2.83c-1.94,2.59-3.03,5.4-3.01,8.66c0.03,5.34,0.01,10.68,0.01,16.02
		c0,4.1,1.57,7.45,4.56,10.25c0.79,0.73,1.5,1.77,1.77,2.8c2.72,10.29,7.45,19.58,13.6,28.22c0.7,0.98,1.15,2.35,1.2,3.56
		c0.15,4.1,0.07,8.22,0.05,12.32c-0.04,6.56-2.85,11.48-8.67,14.64c-10.46,5.68-20.91,11.38-31.33,17.12
		c-3.87,2.13-7.66,4.41-11.83,6.82c-1.41-1.25-3.15-2.72-4.8-4.28c-20.72-19.76-33.41-43.78-38.1-72
		c-0.63-3.79-0.76-7.66-1.17-11.49c-0.13-1.21-0.38-2.41-0.57-3.61C1.87,144.33,1.87,141.2,1.87,138.08z"/>
</g>
</svg>
