<?xml version="1.0" encoding="utf-8"?>
<!-- Generator: Adobe Illustrator 26.3.1, SVG Export Plug-In . SVG Version: 6.00 Build 0)  -->
<svg version="1.1" id="Calque_1" xmlns="http://www.w3.org/2000/svg" xmlns:xlink="http://www.w3.org/1999/xlink" x="0px" y="0px"
	 viewBox="0 0 256 256" style="enable-background:new 0 0 256 256;" xml:space="preserve">
<g>
	<path d="M128.06,210c-31.6-0.24-59.46-10.99-84.29-30.19c-12.82-9.91-23.82-21.61-33.35-34.7c-7.84-10.77-7.91-23.3-0.08-34.02
		C28.06,86.81,50.1,67.85,78,56.16c18.61-7.8,38.03-11.22,58.14-9.87c28.36,1.9,53.46,12.44,75.85,29.76
		c12.97,10.03,24.12,21.84,33.73,35.12c7.28,10.06,7.85,22.61,0.88,32.38c-19.81,27.75-45.02,48.59-77.61,59.7
		C155.72,207.76,142.08,210.02,128.06,210z M127.94,191.74c12.84-0.18,25.39-2.13,37.5-6.48c27.68-9.93,48.87-28.21,65.88-51.78
		c2.69-3.73,2.46-7.63-0.41-11.58c-10.15-13.98-21.91-26.4-36.28-36.05c-36.5-24.5-75.05-28.63-115.31-10.36
		c-22.59,10.26-40.07,26.86-54.52,46.81c-2.87,3.96-2.65,7.86,0.43,12.07c7.74,10.6,16.51,20.25,26.62,28.63
		C73.93,181.28,99.1,191.38,127.94,191.74z"/>
	<path d="M82.74,128.17c0.22-19.53,10.54-35.88,27.04-42.41c18.1-7.16,39.02-2.9,51.55,10.5c18.47,19.75,15.49,54.43-6.02,69.44
		c-20.75,14.47-62.83,11.63-71.22-27.15C83.35,135.16,83.18,131.64,82.74,128.17z M128,155.32c15.74-0.01,27.19-11.46,27.22-27.24
		c0.04-15.76-11.35-27.25-27.11-27.35c-15.82-0.1-27.43,11.52-27.37,27.38C100.8,143.88,112.27,155.33,128,155.32z"/>
</g>
</svg>
